# File created by Blade
# Date/Time:  Mon Sep 29 17:58:21 2014
# Frame Rate: 120.000 fps
#------------------------------------------------------
:FULLY-SPECIFIED
:DEGREES
2010
root -1.532443 3.106645 -7.750624 -26.020156 6.499508 6.751102
Spine 40.212083 35.805247 14.870627
Head -33.769727 -8.530740 3.586792
LeftShoulder -5.673025 18.642334 12.996344
LeftArm 16.245397 27.867407 -84.007709
LeftForeArm -43.215802 0.000000 4.631912
LeftHand -55.177953 -0.000000 72.673268
LeftHandThumb1 -26.253704 0.000000 33.147579
RightShoulder 3.823139 41.824921 -26.960441
RightArm 48.679237 -12.070769 73.408467
RightForeArm -27.856081 -0.000000 29.851003
RightHand -4.130555 -0.000000 14.719477
RightHandThumb1 -24.326973 -0.000000 -32.862282
LeftUpLeg -103.222743 -19.069012 -31.265961
LeftLeg 116.779096 -0.000000 -0.000000
LeftFoot 12.800961 6.908378 -10.795670
LeftToeBase 3.723182 -0.000000 -0.000000
RightUpLeg -61.949055 1.441427 9.657374
RightLeg 6.550425 -0.000000 -0.000000
RightFoot 43.173222 3.460299 9.286067
RightToeBase 2.899550 -0.000000 -0.000000
2011
root -1.517174 3.101624 -7.736909 -26.068641 6.422995 6.651524
Spine 40.032440 35.815996 14.930915
Head -33.290805 -9.791086 4.158286
LeftShoulder -5.568205 18.732650 13.128857
LeftArm 16.008059 27.761366 -84.252285
LeftForeArm -43.172684 -0.000000 4.720905
LeftHand -55.094283 -0.000000 72.845725
LeftHandThumb1 -26.253704 0.000000 33.147579
RightShoulder 3.444664 41.943268 -27.295572
RightArm 48.823441 -11.766448 73.460767
RightForeArm -27.876750 -0.000000 30.563263
RightHand -4.204620 -0.000000 14.733490
RightHandThumb1 -24.326973 -0.000000 -32.862282
LeftUpLeg -103.176439 -18.877253 -31.364069
LeftLeg 116.811742 -0.000000 -0.000000
LeftFoot 12.815616 6.763193 -10.817968
LeftToeBase 3.769826 -0.000000 -0.000000
RightUpLeg -61.895823 1.572826 9.633559
RightLeg 6.507658 -0.000000 -0.000000
RightFoot 43.322533 3.667961 9.233558
RightToeBase 2.676682 -0.000000 -0.000000
2012
root -1.500001 3.093552 -7.727974 -26.096526 6.365320 6.534914
Spine 39.809188 35.779155 14.950227
Head -32.844827 -10.941591 4.697418
LeftShoulder -5.505912 18.872783 13.253339
LeftArm 15.801239 27.646008 -84.493280
LeftForeArm -43.105175 -0.000000 4.848169
LeftHand -55.045242 -0.000000 73.041747
LeftHandThumb1 -26.253704 0.000000 33.147579
RightShoulder 3.072861 41.972481 -27.700448
RightArm 48.985080 -11.429975 73.431779
RightForeArm -27.787907 -0.000000 31.347074
RightHand -4.266836 -0.000000 14.724797
RightHandThumb1 -24.326973 -0.000000 -32.862282
LeftUpLeg -103.147328 -18.812220 -31.420296
LeftLeg 116.833891 -0.000000 -0.000000
LeftFoot 12.812363 6.773421 -10.722692
LeftToeBase 3.757090 -0.000000 -0.000000
RightUpLeg -61.879007 1.655526 9.617874
RightLeg 6.499477 -0.000000 -0.000000
RightFoot 43.356894 3.572650 9.646217
RightToeBase 2.822796 -0.000000 -0.000000
2013
root -1.469737 3.093906 -7.721954 -26.205828 6.403739 6.513213
Spine 39.672108 35.491177 14.786552
Head -32.471641 -11.826810 5.072129
LeftShoulder -5.626671 19.019821 13.265962
LeftArm 15.630505 27.545198 -84.697399
LeftForeArm -43.125331 -0.000000 4.951668
LeftHand -55.134852 -0.000000 73.187644
LeftHandThumb1 -26.253704 0.000000 33.147579
RightShoulder 2.828751 42.120763 -27.974334
RightArm 49.218696 -11.189730 73.300257
RightForeArm -27.600928 0.000000 32.035112
RightHand -4.248172 -0.000000 14.615601
RightHandThumb1 -24.326973 -0.000000 -32.862282
LeftUpLeg -102.943234 -18.679084 -31.666952
LeftLeg 116.789175 -0.000000 -0.000000
LeftFoot 12.845100 6.690020 -10.731535
LeftToeBase 3.745893 -0.000000 -0.000000
RightUpLeg -61.785770 1.664613 9.470535
RightLeg 6.483669 -0.000000 -0.000000
RightFoot 43.469591 3.701698 9.744624
RightToeBase 2.579852 -0.000000 -0.000000
2014
root -1.447966 3.088951 -7.712978 -26.279059 6.357225 6.421220
Spine 39.467425 35.331465 14.723213
Head -31.985917 -12.744016 5.430628
LeftShoulder -5.677845 19.190120 13.344107
LeftArm 15.460333 27.455640 -84.929195
LeftForeArm -43.086745 -0.000000 5.038647
LeftHand -55.171950 -0.000000 73.370497
LeftHandThumb1 -26.253704 0.000000 33.147579
RightShoulder 2.553394 42.221459 -28.250513
RightArm 49.280725 -10.880350 73.214597
RightForeArm -27.531133 0.000000 32.903125
RightHand -4.319485 -0.000000 14.590067
RightHandThumb1 -24.326973 -0.000000 -32.862282
LeftUpLeg -102.847891 -18.536274 -31.810717
LeftLeg 116.798541 -0.000000 -0.000000
LeftFoot 12.838158 6.682111 -10.724643
LeftToeBase 3.819773 -0.000000 -0.000000
RightUpLeg -61.726268 1.750848 9.419485
RightLeg 6.466621 -0.000000 -0.000000
RightFoot 43.560275 3.976667 9.572705
RightToeBase 2.306607 -0.000000 -0.000000
2015
root -1.430389 3.081756 -7.707141 -26.340479 6.302493 6.300790
Spine 39.280131 35.193587 14.698266
Head -31.609298 -13.553697 5.817502
LeftShoulder -5.683329 19.349880 13.449813
LeftArm 15.293707 27.334974 -85.181230
LeftForeArm -43.048376 -0.000000 5.124978
LeftHand -55.208088 -0.000000 73.483262
LeftHandThumb1 -26.253704 0.000000 33.147579
RightShoulder 2.199947 42.224493 -28.532462
RightArm 49.412172 -10.550753 73.068441
RightForeArm -27.523006 -0.000000 33.802732
RightHand -4.330347 -0.000000 14.649758
RightHandThumb1 -24.326973 -0.000000 -32.862282
LeftUpLeg -102.773312 -18.416714 -31.919200
LeftLeg 116.804805 -0.000000 -0.000000
LeftFoot 12.823096 6.731492 -10.683810
LeftToeBase 3.878181 -0.000000 -0.000000
RightUpLeg -61.683421 1.836051 9.374424
RightLeg 6.482094 -0.000000 -0.000000
RightFoot 43.436515 4.006857 9.755553
RightToeBase 2.834227 -0.000000 -0.000000
2016
root -1.416096 3.075253 -7.700824 -26.404407 6.229950 6.214769
Spine 39.135873 35.136597 14.649773
Head -31.257699 -14.326518 6.203968
LeftShoulder -5.652787 19.428647 13.620050
LeftArm 15.080528 27.252284 -85.466528
LeftForeArm -43.063959 0.000000 5.204608
LeftHand -55.169750 -0.000000 73.614209
LeftHandThumb1 -26.253704 0.000000 33.147579
RightShoulder 1.775200 42.144246 -28.787401
RightArm 49.561336 -10.228186 72.846141
RightForeArm -27.564292 -0.000000 34.787704
RightHand -4.371583 0.000000 14.576783
RightHandThumb1 -24.326973 -0.000000 -32.862282
LeftUpLeg -102.709893 -18.241776 -32.054478
LeftLeg 116.830462 -0.000000 -0.000000
LeftFoot 12.799137 6.724193 -10.653132
LeftToeBase 3.892267 -0.000000 -0.000000
RightUpLeg -61.637159 1.942537 9.345516
RightLeg 6.471494 -0.000000 -0.000000
RightFoot 43.572290 4.223791 9.653984
RightToeBase 2.393267 -0.000000 -0.000000
2017
root -1.397353 3.070951 -7.698648 -26.480884 6.182173 6.145365
Spine 39.005548 34.981130 14.560568
Head -30.822658 -15.045942 6.439944
LeftShoulder -5.657039 19.565581 13.725849
LeftArm 14.919368 27.125917 -85.734413
LeftForeArm -43.077982 -0.000000 5.270192
LeftHand -55.123936 0.000000 73.755024
LeftHandThumb1 -26.253704 0.000000 33.147579
RightShoulder 1.357824 41.990753 -29.048174
RightArm 49.794804 -9.987087 72.443909
RightForeArm -27.551563 -0.000000 35.835002
RightHand -4.461724 -0.000000 14.440219
RightHandThumb1 -24.326973 -0.000000 -32.862282
LeftUpLeg -102.606702 -18.093165 -32.216386
LeftLeg 116.819824 -0.000000 -0.000000
LeftFoot 12.784403 6.767039 -10.564251
LeftToeBase 3.917432 -0.000000 -0.000000
RightUpLeg -61.574033 2.013661 9.283194
RightLeg 6.465731 -0.000000 -0.000000
RightFoot 43.609236 4.271905 9.736234
RightToeBase 2.271493 -0.000000 -0.000000
2018
root -1.380024 3.064307 -7.698276 -26.530465 6.107710 6.050843
Spine 38.833600 34.802690 14.484488
Head -30.476078 -15.609407 6.568118
LeftShoulder -5.658201 19.685412 13.803780
LeftArm 14.694932 26.977245 -86.020610
LeftForeArm -43.108122 -0.000000 5.356708
LeftHand -55.094910 0.000000 73.857086
LeftHandThumb1 -26.253704 0.000000 33.147579
RightShoulder 1.032051 41.870100 -29.257404
RightArm 49.872031 -9.657660 72.167848
RightForeArm -27.871257 -0.000000 37.003622
RightHand -4.478986 0.000000 14.373888
RightHandThumb1 -24.326973 -0.000000 -32.862282
LeftUpLeg -102.554221 -17.938364 -32.332472
LeftLeg 116.818492 -0.000000 -0.000000
LeftFoot 12.794671 6.761149 -10.408595
LeftToeBase 3.927090 -0.000000 -0.000000
RightUpLeg -61.545365 2.106247 9.242500
RightLeg 6.466991 -0.000000 -0.000000
RightFoot 43.628203 4.290254 9.811389
RightToeBase 2.195835 -0.000000 -0.000000
2019
root -1.360613 3.057628 -7.699550 -26.619166 6.059830 5.910032
Spine 38.701526 34.524762 14.473400
Head -30.082506 -16.135277 6.600618
LeftShoulder -5.659631 19.780507 13.857897
LeftArm 14.435811 26.894863 -86.336279
LeftForeArm -43.144508 0.000000 5.432784
LeftHand -55.074023 -0.000000 73.929341
LeftHandThumb1 -26.253704 0.000000 33.147579
RightShoulder 0.679490 41.674075 -29.497230
RightArm 50.050561 -9.391892 71.712119
RightForeArm -28.026241 -0.000000 38.138386
RightHand -4.512022 -0.000000 14.278508
RightHandThumb1 -24.326973 -0.000000 -32.862282
LeftUpLeg -102.431777 -17.820810 -32.424772
LeftLeg 116.801097 -0.000000 -0.000000
LeftFoot 12.760250 6.728555 -10.300961
LeftToeBase 3.859710 -0.000000 -0.000000
RightUpLeg -61.480064 2.122075 9.266347
RightLeg 6.463285 -0.000000 -0.000000
RightFoot 43.637436 4.344908 9.826669
RightToeBase 2.058248 -0.000000 -0.000000
2020
root -1.348386 3.050868 -7.698500 -26.683641 5.958286 5.823820
Spine 38.550424 34.343245 14.359655
Head -29.750256 -16.554442 6.738272
LeftShoulder -5.623705 19.860410 13.981040
LeftArm 14.134507 26.736669 -86.681075
LeftForeArm -43.227353 -0.000000 5.540450
LeftHand -54.940225 -0.000000 73.997166
LeftHandThumb1 -26.253704 0.000000 33.147579
RightShoulder 0.314294 41.388961 -29.680340
RightArm 50.247812 -9.122707 71.183070
RightForeArm -28.317910 -0.000000 39.380785
RightHand -4.582828 0.000000 14.131029
RightHandThumb1 -24.326973 -0.000000 -32.862282
LeftUpLeg -102.382771 -17.614215 -32.553497
LeftLeg 116.824612 -0.000000 -0.000000
LeftFoot 12.710982 6.698805 -10.186209
LeftToeBase 4.049752 -0.000000 -0.000000
RightUpLeg -61.419175 2.238653 9.253364
RightLeg 6.447879 -0.000000 -0.000000
RightFoot 43.610213 4.364201 9.723540
RightToeBase 1.931771 -0.000000 -0.000000
